# xmcd CD database file
#
# Track frame offsets:
#	150
#	14514
#	28523
#	38843
#	50860
#	63061
#	73978
#	85102
#	99374
#	115365
#
# Disc length: 1671 seconds
#
# Revision: 1
# Processed by: cddbd v1.5.2PL0 Copyright (c) Steve Scherf et al.
# Submitted via: CDex 1.70beta2
#
DISCID=8306850a
DTITLE=Various Artist - Madacy's Best Of Bluegrass Vol. 4
DYEAR=2006
DGENRE=Bluegrass
TTITLE0=Coal Miner's Daughter (L Lynn)
TTITLE1=Your Cheetin' Heart (H Williams)
TTITLE2=Cotton Eyed Joe (Traditional)
TTITLE3=Wabash Cannonball (A P Carter)
TTITLE4=Nine Pound Hammer (M Travis)
TTITLE5=Skillet Good and Greasy (D Macon)
TTITLE6=Red Truck (Steve Ivey)
TTITLE7=Don't It Make My Brown Eyes Blue (R Leigh)
TTITLE8=Hiawasee Honey (Steve Ivey)
TTITLE9=Back Up and Push (Traditional)
EXTD=Disc 1 of 4 (Madacy Label) YEAR: 2006
EXTT0=
EXTT1=
EXTT2=
EXTT3=
EXTT4=
EXTT5=
EXTT6=
EXTT7=
EXTT8=
EXTT9=
PLAYORDER=
